<svg width="31" height="31" viewBox="0 0 31 31" fill="none" xmlns="http://www.w3.org/2000/svg">
<mask id="mask0_88_18" style="mask-type:alpha" maskUnits="userSpaceOnUse" x="0" y="0" width="31" height="31">
<rect width="30.9593" height="30.9593" fill="#D9D9D9"/>
</mask>
<g mask="url(#mask0_88_18)">
<path d="M15.4797 29.6694C11.4808 29.6694 8.11608 28.9223 5.38564 27.4281C2.6552 25.9339 1.28998 24.1011 1.28998 21.9296C1.28998 20.4461 1.97796 19.0863 3.35393 17.8501C4.72991 16.6138 6.62187 15.6732 9.02982 15.0283V17.6727C7.46035 18.1672 6.208 18.8014 5.27277 19.5754C4.33754 20.3494 3.86992 21.1341 3.86992 21.9296C3.86992 23.3056 5.0309 24.5096 7.35285 25.5415C9.6748 26.5735 12.3837 27.0895 15.4797 27.0895C18.5756 27.0895 21.2846 26.5735 23.6065 25.5415C25.9285 24.5096 27.0894 23.3056 27.0894 21.9296C27.0894 21.1341 26.6218 20.3494 25.6866 19.5754C24.7514 18.8014 23.499 18.1672 21.9295 17.6727V15.0283C24.3375 15.6732 26.2295 16.6138 27.6054 17.8501C28.9814 19.0863 29.6694 20.4461 29.6694 21.9296C29.6694 24.1011 28.3042 25.9339 25.5737 27.4281C22.8433 28.9223 19.4786 29.6694 15.4797 29.6694ZM11.6098 24.5096V10.3198H5.1599V7.7399H25.7995V10.3198H19.3496V24.5096H16.7697V18.0597H14.1897V24.5096H11.6098ZM15.4797 6.44993C14.7702 6.44993 14.1628 6.19731 13.6576 5.69207C13.1524 5.18683 12.8997 4.57947 12.8997 3.86998C12.8997 3.1605 13.1524 2.55314 13.6576 2.0479C14.1628 1.54266 14.7702 1.29004 15.4797 1.29004C16.1892 1.29004 16.7965 1.54266 17.3018 2.0479C17.807 2.55314 18.0596 3.1605 18.0596 3.86998C18.0596 4.57947 17.807 5.18683 17.3018 5.69207C16.7965 6.19731 16.1892 6.44993 15.4797 6.44993Z" fill="white"/>
</g>
</svg>
