<svg width="31" height="31" viewBox="0 0 31 31" fill="none" xmlns="http://www.w3.org/2000/svg">
<mask id="mask0_88_36" style="mask-type:alpha" maskUnits="userSpaceOnUse" x="0" y="0" width="31" height="31">
<rect y="0.0407715" width="30.9593" height="30.9593" fill="#D9D9D9"/>
</mask>
<g mask="url(#mask0_88_36)">
<path d="M9.02982 28.4201V21.9702H2.57996V9.07047H9.02982V2.62061H21.9296V9.07047H28.3794V21.9702H21.9296V28.4201H9.02982ZM5.1599 14.2304H11.6098C11.8248 14.2304 12.029 14.2841 12.2225 14.3916C12.416 14.4991 12.5665 14.6389 12.674 14.8108L13.8027 16.4878L15.5442 11.2634C15.6302 11.0054 15.7861 10.7904 16.0118 10.6184C16.2375 10.4464 16.4902 10.3604 16.7697 10.3604C16.9847 10.3604 17.1889 10.4142 17.3824 10.5217C17.5759 10.6292 17.7264 10.7689 17.8339 10.9409L20.0268 14.2304H25.7995V11.6504H19.3496V5.20055H11.6098V11.6504H5.1599V14.2304ZM11.6098 25.8401H19.3496V19.3903H25.7995V16.8103H19.3496C19.1346 16.8103 18.9304 16.7566 18.7369 16.6491C18.5434 16.5416 18.3821 16.4018 18.2531 16.2298L17.1567 14.5529L15.4152 19.7772C15.3292 20.0352 15.1679 20.2502 14.9314 20.4222C14.695 20.5942 14.437 20.6802 14.1575 20.6802C13.9425 20.6802 13.7382 20.6265 13.5447 20.519C13.3512 20.4115 13.2007 20.2717 13.0932 20.0997L10.9003 16.8103H5.1599V19.3903H11.6098V25.8401Z" fill="white"/>
</g>
</svg>
